<svg width="1342" height="515" viewBox="0 0 1342 515" fill="none" xmlns="http://www.w3.org/2000/svg">
<g clip-path="url(#clip0_13_778)">
<path d="M1236.15 497.191L807.836 475.504C716.607 470.902 625.204 470.902 533.975 475.504L105.72 497.191C92.1569 497.875 78.5967 495.794 65.863 491.074C53.1293 486.355 41.4881 479.096 31.6468 469.738C21.8056 460.38 13.9697 449.119 8.6153 436.639C3.26095 424.159 0.499951 410.721 0.500081 397.141V101.278C0.482845 87.6872 3.23123 74.2351 8.57799 61.7403C13.9247 49.2456 21.758 37.9694 31.6011 28.5981C41.4442 19.2268 53.0913 11.9564 65.8334 7.22931C78.5756 2.50225 92.1463 0.417409 105.72 1.10166L534.038 22.9148C625.267 27.517 716.67 27.517 807.899 22.9148L1236.15 1.10166C1249.72 0.418233 1263.28 2.49903 1276.02 7.21772C1288.76 11.9364 1300.4 19.1946 1310.25 28.5514C1320.1 37.9083 1327.94 49.1687 1333.3 61.6489C1338.66 74.1291 1341.43 87.5688 1341.44 101.151V397.141C1341.43 410.724 1338.66 424.164 1333.3 436.644C1327.94 449.124 1320.1 460.385 1310.25 469.741C1300.4 479.098 1288.76 486.356 1276.02 491.075C1263.28 495.794 1249.72 497.875 1236.15 497.191Z" fill="url(#paint0_linear_13_778)"/>
<path d="M1210.99 514.352L801.82 493.443C714.684 488.986 627.381 488.986 540.245 493.443L131.206 514.352C118.233 515.037 105.259 513.043 93.0728 508.49C80.8866 503.937 69.7434 496.922 60.322 487.87C50.9005 478.819 43.3978 467.922 38.2709 455.842C33.144 443.762 30.5 430.752 30.5001 417.605V131.556C30.4829 118.395 33.1137 105.368 38.2321 93.27C43.3505 81.1713 50.8493 70.2541 60.2716 61.1837C69.6939 52.1133 80.8424 45.0796 93.0375 40.5115C105.233 35.9433 118.219 33.9362 131.206 34.6125L540.374 55.5876C627.51 60.0448 714.813 60.0448 801.95 55.5876L1210.99 34.6125C1223.95 33.9551 1236.9 35.9702 1249.06 40.5354C1261.23 45.1005 1272.34 52.1205 1281.75 61.1689C1291.15 70.2173 1298.63 81.1052 1303.75 93.1714C1308.86 105.237 1311.5 118.23 1311.5 131.36V417.605C1311.51 430.737 1308.88 443.734 1303.76 455.805C1298.65 467.875 1291.17 478.767 1281.77 487.817C1272.36 496.868 1261.24 503.887 1249.07 508.449C1236.9 513.011 1223.95 515.019 1210.99 514.352Z" fill="white"/>
</g>
<defs>
<linearGradient id="paint0_linear_13_778" x1="41.4655" y1="40.7251" x2="1211.64" y2="665.213" gradientUnits="userSpaceOnUse">
<stop stop-color="#00FFA2"/>
<stop offset="1" stop-color="#0072FF"/>
</linearGradient>
<clipPath id="clip0_13_778">
<rect width="1341" height="514" fill="white" transform="translate(0.5 0.484375)"/>
</clipPath>
</defs>
</svg>
