<svg width="225" height="99" viewBox="0 0 225 99" fill="none" xmlns="http://www.w3.org/2000/svg">
<path d="M49.3587 4H175.713C200.764 4 221.072 24.3077 221.072 49.3587C221.072 74.4094 200.764 94.7173 175.713 94.7173H49.3587C24.3077 94.7173 4 74.4094 4 49.3587C4 24.3077 24.3077 4 49.3587 4Z" fill="black"/>
<path d="M49.3587 4H175.713C200.764 4 221.072 24.3077 221.072 49.3587C221.072 74.4094 200.764 94.7173 175.713 94.7173H49.3587C24.3077 94.7173 4 74.4094 4 49.3587C4 24.3077 24.3077 4 49.3587 4Z" stroke="url(#paint0_linear_9_70)" stroke-width="6.70391"/>
<path d="M47.7269 42.5732L52.9198 38.8952V38.9448C53.0512 38.846 53.2054 38.7966 53.366 38.7868C53.528 38.7573 53.693 38.7966 53.8351 38.8755C53.9841 38.9446 54.1108 39.0534 54.2011 39.1913C54.2863 39.3292 54.3332 39.4871 54.3383 39.6547V47.3164L66.5551 38.8952C66.6878 38.8067 66.8405 38.7475 67.0009 38.7276C67.1625 38.7178 67.324 38.7477 67.4697 38.8168C67.6161 38.8954 67.739 39.0138 67.8248 39.1517C67.9146 39.2901 67.9625 39.4474 67.962 39.6051V47.8686L80.1327 38.8952C80.2691 38.8067 80.4266 38.7477 80.5902 38.7376C80.7524 38.718 80.9169 38.7477 81.0592 38.8264C81.2074 38.8954 81.3307 39.0138 81.4136 39.1517C81.5021 39.2901 81.5533 39.4474 81.5625 39.6051V47.1093C81.562 47.2572 81.5269 47.3951 81.4594 47.5231C81.3935 47.6416 81.2992 47.7499 81.1848 47.829L64.4501 59.8391C64.2519 59.987 64.0181 60.0661 63.7752 60.0858C63.5334 60.0956 63.2923 60.0463 63.0775 59.9379C62.8617 59.8194 62.68 59.6619 62.5513 59.4547C62.4212 59.2478 62.3499 59.0011 62.3455 58.7544V50.2646L49.4997 59.08C49.3035 59.2279 49.0697 59.3164 48.8248 59.3361C48.5765 59.3658 48.3265 59.3166 48.1041 59.1984C47.8827 59.0997 47.6961 58.9321 47.5665 58.7251C47.44 58.5082 47.373 58.2617 47.3721 58.0152V43.2831C47.3739 43.1452 47.4051 43.0074 47.4639 42.8791C47.5294 42.7609 47.619 42.6521 47.7269 42.5732Z" fill="white"/>
<path d="M95.584 43.2339H92.3813L96.4191 55.7276H99.4162L101.132 50.3732C101.761 48.3222 101.99 47.4445 102.127 46.8724C102.34 48.036 102.635 49.1799 103.008 50.3041L104.724 55.6979H107.595L111.908 43.2339H108.647L106.988 48.5884C106.759 49.3674 106.359 50.8565 106.154 51.7931C106.005 50.9548 105.501 49.0815 105.353 48.5884L103.683 43.2339H100.56L98.8444 48.5884C98.4783 49.6436 98.1912 50.7182 97.9863 51.8129C97.7574 50.6494 97.5058 49.5548 97.2314 48.5884L95.584 43.2339Z" fill="white"/>
<path d="M113.865 37.7716C113.659 38.0867 113.552 38.4531 113.556 38.8263L113.612 38.8867C113.612 39.1325 113.661 39.3783 113.762 39.6062C113.858 39.8319 113.994 40.0308 114.162 40.2073C114.341 40.3839 114.551 40.5135 114.781 40.6118C115.007 40.7012 115.255 40.7504 115.5 40.7392C115.871 40.7392 116.233 40.6207 116.542 40.4152C116.85 40.2073 117.089 39.9124 117.228 39.566C117.375 39.2107 117.411 38.8062 117.331 38.4219C117.25 38.0688 117.067 37.7336 116.803 37.4766C116.54 37.2196 116.207 37.0319 115.842 36.9626C115.46 36.8844 115.06 36.9247 114.698 37.0811C114.359 37.2196 114.07 37.4654 113.865 37.7716ZM116.931 43.1861H113.842V55.6487H116.931V43.1861Z" fill="white"/>
<path d="M127.968 46.0342H126.823C126.337 45.975 125.843 46.0344 125.38 46.1924C124.917 46.36 124.497 46.6163 124.15 46.9613C123.804 47.3164 123.539 47.7305 123.379 48.1939C123.218 48.6574 123.164 49.1504 123.22 49.6433V55.6979H120.132V43.2637H123.048L123.22 45.0777C123.502 44.427 123.977 43.8748 124.582 43.5099C125.185 43.1452 125.888 42.968 126.594 43.017C127.054 43.017 127.511 43.0762 127.956 43.1848L127.968 46.0342Z" fill="white"/>
<path d="M135.076 42.8107C131.413 42.8107 128.852 45.5035 128.852 49.4163C128.801 50.2744 128.928 51.1236 129.223 51.9213C129.52 52.7303 129.981 53.461 130.573 54.0711C131.167 54.6834 131.882 55.166 132.673 55.4923C133.462 55.8163 134.314 55.975 135.165 55.9549C138.414 55.9549 140.68 54.3169 141.216 51.5772H138.369C138.014 52.7705 136.906 53.4297 135.223 53.4297C133.165 53.4297 132.021 52.3169 131.791 50.118H141.172V49.1906C141.172 45.3158 138.736 42.8107 135.076 42.8107ZM138.117 48.1739H131.873C131.889 47.7716 131.987 47.3761 132.159 47.0208C132.332 46.6565 132.575 46.3303 132.875 46.0755C133.176 45.8074 133.527 45.6018 133.905 45.4722C134.285 45.3537 134.687 45.3046 135.087 45.3359C135.478 45.2956 135.873 45.3448 136.247 45.4632C136.618 45.5906 136.959 45.7984 137.245 46.0644C137.534 46.3303 137.759 46.6565 137.909 47.0208C138.061 47.385 138.13 47.7806 138.117 48.1739Z" fill="white"/>
<path d="M143.587 43.1861H146.434L146.629 45.0789C147.069 44.3482 147.699 43.747 148.454 43.3426C149.212 42.9381 150.063 42.7504 150.919 42.7906C154.43 42.7906 156.74 45.3448 156.74 49.2487C156.74 53.1437 154.624 55.9638 150.919 55.9638C150.097 56.0152 149.277 55.8565 148.53 55.5012C147.786 55.1571 147.14 54.623 146.653 53.9638V61.4185H143.587V43.1861ZM150.197 53.1951C150.678 53.1951 151.156 53.0945 151.596 52.909C152.037 52.7102 152.432 52.4241 152.754 52.0711C153.078 51.7157 153.324 51.2912 153.473 50.8375C153.625 50.3839 153.679 49.9012 153.63 49.4163C153.63 47.2085 152.338 45.6018 150.197 45.6018C149.241 45.6711 148.349 46.1046 147.697 46.804C147.047 47.5146 146.685 48.442 146.685 49.3984C146.685 50.3549 147.047 51.28 147.697 51.9817C148.349 52.6901 149.241 53.1146 150.197 53.1951Z" fill="white"/>
<path d="M163.23 48.2476C160.325 48.4733 158.653 49.9035 158.653 52.1918C158.653 54.5381 160.267 56.0867 162.875 56.0867C163.704 56.156 164.533 55.9884 165.268 55.604C166.003 55.2175 166.615 54.6365 167.029 53.908L167.257 55.7605H169.967V48.1873C169.967 44.737 167.909 42.9225 164.535 42.9225C161.161 42.9225 158.939 44.6767 158.939 47.3895H161.561C161.561 46.0778 162.566 45.3091 164.374 45.3091C165.94 45.3091 166.959 45.9996 166.959 47.6756V47.9616L163.23 48.2476ZM167.015 50.0622V50.7124C167.049 51.1169 166.993 51.5415 166.848 51.9258C166.705 52.3102 166.477 52.6655 166.182 52.9515C165.889 53.2465 165.534 53.4744 165.145 53.6108C164.754 53.7493 164.34 53.7985 163.927 53.7582C162.533 53.7582 161.789 53.099 161.789 52.0823C161.789 51.0677 162.508 50.4353 164.419 50.2499L167.015 50.0622Z" fill="white"/>
<path d="M171.608 58.9023H173.45C174.011 58.9714 174.58 58.8333 175.044 58.518C175.51 58.1924 175.838 57.7095 175.966 57.1573L176.322 56.2205L171.312 43.2339H174.549L177.762 52.3059L181.194 43.2339H184.374L178.266 58.4688C177.339 60.7564 175.979 61.7426 173.976 61.7426C173.206 61.7522 172.436 61.6634 171.688 61.4762L171.608 58.9023Z" fill="white"/>
<defs>
<linearGradient id="paint0_linear_9_70" x1="112.536" y1="49.3587" x2="134.882" y2="49.3587" gradientUnits="userSpaceOnUse">
<stop stop-color="#F1F5F9"/>
<stop offset="0.5" stop-color="#F8BE7C"/>
<stop offset="1" stop-color="#FF8600"/>
</linearGradient>
</defs>
</svg>
